<?xml version="1.0" standalone="no"?>
<!DOCTYPE svg PUBLIC "-//W3C//DTD SVG 1.1//EN" "http://www.w3.org/Graphics/SVG/1.1/DTD/svg11.dtd" >
<svg xmlns="http://www.w3.org/2000/svg">
<metadata></metadata>
<defs>
<font id="interstatelight" horiz-adv-x="1388" >
<font-face units-per-em="2048" ascent="1638" descent="-410" />
<missing-glyph horiz-adv-x="532" />
<glyph horiz-adv-x="0" />
<glyph horiz-adv-x="682" />
<glyph unicode=" "  horiz-adv-x="532" />
<glyph unicode="&#x09;" horiz-adv-x="532" />
<glyph unicode="&#xa0;" horiz-adv-x="532" />
<glyph unicode="!" horiz-adv-x="538" d="M143 102q0 51 37 90t88 39q49 0 87 -39t38 -90t-37.5 -88t-87.5 -37q-51 0 -88 37t-37 88zM190 760v674h158v-674l-37 -375h-86z" />
<glyph unicode="&#x22;" horiz-adv-x="942" d="M172 1434h190l-34 -670h-121zM580 1434h190l-35 -670h-121z" />
<glyph unicode="#" horiz-adv-x="1376" d="M106 360v144h246v426h-246v143h246v361h154v-361h364v361h154v-361h246v-143h-246v-426h246v-144h-246v-360h-154v360h-364v-360h-154v360h-246zM506 504h364v426h-364v-426z" />
<glyph unicode="$" horiz-adv-x="1191" d="M102 197l107 118q180 -172 381 -172q144 0 226.5 61.5t82.5 174.5q0 99 -72 160.5t-270 132.5q-237 85 -325.5 170t-88.5 237q0 151 98 242.5t267 110.5v206h154v-204q109 -9 194.5 -46.5t171.5 -105.5l-102 -125q-82 68 -161.5 100.5t-182.5 32.5q-141 0 -210 -55 t-69 -145q0 -63 25.5 -104t98 -82.5t216.5 -92.5q239 -87 327.5 -176t88.5 -248q0 -156 -105.5 -260.5t-291.5 -124.5v-207h-154v207q-119 13 -224.5 65t-181.5 130z" />
<glyph unicode="%" horiz-adv-x="1972" d="M123 1008q0 201 90.5 324.5t243.5 123.5q154 0 242.5 -122t88.5 -322q0 -198 -92.5 -322.5t-242.5 -124.5t-240 122.5t-90 320.5zM264 1012q0 -143 52.5 -233.5t140.5 -90.5q86 0 138 93t52 227q0 143 -52 234t-140 91t-139.5 -89t-51.5 -232zM465 0l891 1434h149 l-891 -1434h-149zM1184 420q0 201 90.5 324.5t243.5 123.5q154 0 242.5 -122t88.5 -322q0 -197 -93 -322t-243 -125t-239.5 122.5t-89.5 320.5zM1325 424q0 -143 52.5 -233.5t140.5 -90.5q86 0 138 93t52 227q0 143 -52 234t-140 91t-139.5 -89t-51.5 -232z" />
<glyph unicode="&#x26;" horiz-adv-x="1318" d="M125 362q0 104 39.5 185t107 137.5t174.5 110.5l-49 65q-64 84 -95.5 147.5t-31.5 139.5q0 137 99 223t266 86q221 0 381 -129l-82 -127q-80 63 -148.5 90t-152.5 27q-94 0 -149.5 -44.5t-55.5 -117.5q0 -53 20.5 -97.5t65.5 -103.5l436 -567q49 91 99 252l135 -41 q-50 -180 -144 -328l207 -270h-188l-115 150q-170 -173 -387 -173q-114 0 -199.5 30.5t-135 84.5t-73.5 121.5t-24 148.5zM279 367q0 -109 74.5 -179.5t207.5 -70.5q176 0 299 139l-332 434q-131 -60 -190 -138.5t-59 -184.5z" />
<glyph unicode="'" horiz-adv-x="526" d="M166 1434h194l-34 -670h-125z" />
<glyph unicode="(" horiz-adv-x="712" d="M129 614q0 474 416 852l67 -63q-156 -161 -240.5 -350.5t-84.5 -427.5q0 -246 84 -435.5t241 -351.5l-67 -63q-416 378 -416 839z" />
<glyph unicode=")" horiz-adv-x="712" d="M100 -162q157 161 241.5 350.5t84.5 427.5q0 246 -84.5 435.5t-241.5 351.5l68 63q416 -378 416 -839q0 -474 -416 -852z" />
<glyph unicode="*" horiz-adv-x="1024" d="M147 911l304 138l-304 137l64 110l272 -202l-34 340h126l-34 -340l272 202l64 -110l-304 -137l304 -138l-64 -110l-272 203l34 -340h-126l34 340l-272 -203z" />
<glyph unicode="+" horiz-adv-x="1181" d="M113 635v139h403v416h150v-416h403v-139h-403v-416h-150v416h-403z" />
<glyph unicode="," horiz-adv-x="491" d="M123 -242l31 478h208l-133 -478h-106z" />
<glyph unicode="-" horiz-adv-x="659" d="M104 674v149h451v-149h-451z" />
<glyph unicode="." horiz-adv-x="491" d="M115 109q0 54 38.5 94.5t92.5 40.5q52 0 91.5 -40.5t39.5 -94.5t-39 -93t-92 -39q-54 0 -92.5 39t-38.5 93z" />
<glyph unicode="/" horiz-adv-x="870" d="M53 -184l613 1802h151l-612 -1802h-152z" />
<glyph unicode="0" horiz-adv-x="1314" d="M121 717q0 350 146 544.5t390 194.5t390.5 -194.5t146.5 -544.5t-146.5 -545t-390.5 -195t-390 195t-146 545zM279 717q0 -282 97 -439t281 -157t281.5 157t97.5 439t-97.5 439t-281.5 157t-281 -157t-97 -439z" />
<glyph unicode="1" horiz-adv-x="638" d="M31 1147v100q129 8 204 50.5t93 136.5h121v-1434h-158v1147h-260z" />
<glyph unicode="2" horiz-adv-x="1165" d="M80 0q5 106 30 194.5t60.5 154t97 129.5t121.5 111.5t152 110.5q189 128 249 201t60 172q0 112 -77 176t-216 64q-114 0 -193 -33.5t-155 -99.5l-92 116q99 79 200.5 119.5t245.5 40.5q130 0 228.5 -39.5t157.5 -125.5t59 -210q0 -64 -13.5 -115t-36.5 -92.5t-71.5 -87 t-99.5 -84t-138 -98.5q-145 -99 -224.5 -173t-114 -135.5t-48.5 -143.5h760v-152h-942z" />
<glyph unicode="3" horiz-adv-x="1153" d="M66 176l106 107q152 -162 346 -162q172 0 258 73.5t86 213.5q0 131 -92 200.5t-248 69.5h-94v137h98q136 0 206.5 68.5t70.5 185.5q0 112 -70 178t-225 66q-165 0 -289 -131l-100 102q70 73 172 122.5t221 49.5q198 0 323.5 -94.5t125.5 -271.5q0 -232 -203 -336 q115 -26 188.5 -110t73.5 -232q0 -203 -136.5 -319t-373.5 -116q-129 0 -249.5 57.5t-194.5 141.5z" />
<glyph unicode="4" horiz-adv-x="1280" d="M80 340v133l741 961h172v-957h197v-137h-197v-340h-147v340h-766zM254 477h129h463v635v131q-87 -122 -203 -270l-194 -252q-130 -169 -195 -244z" />
<glyph unicode="5" horiz-adv-x="1239" d="M119 109l78 127q179 -115 387 -115q180 0 274 93.5t94 252.5q0 142 -88 221.5t-254 79.5q-94 0 -163.5 -23.5t-135.5 -68.5l-157 61l49 697h821v-152h-684l-35 -461q132 90 316 90q239 0 364 -117t125 -317q0 -127 -39.5 -223.5t-112 -156.5t-170 -90t-217.5 -30 q-249 0 -452 132z" />
<glyph unicode="6" horiz-adv-x="1257" d="M125 543q0 83 12.5 166.5t42 171t73.5 166.5t111 151t150.5 126t196 89t243.5 43v-141q-562 -49 -675 -602q76 81 173 124.5t240 43.5q100 0 185 -27.5t150.5 -80.5t102.5 -138t37 -193q0 -149 -70.5 -256t-188 -158t-269.5 -51q-110 0 -201 31.5t-162.5 97t-111 177 t-39.5 260.5zM283 434q0 -135 100.5 -224t261.5 -89q174 0 269.5 85.5t95.5 227.5q0 144 -95 223.5t-264 79.5t-268.5 -83t-99.5 -220z" />
<glyph unicode="7" horiz-adv-x="1138" d="M33 1282v152h942v-150q-464 -573 -477 -1284h-162q19 693 465 1282h-768z" />
<glyph unicode="8" horiz-adv-x="1302" d="M119 397q0 139 73.5 232.5t210.5 138.5q-223 87 -223 303q0 172 125 278.5t348 106.5t346 -104.5t123 -276.5q0 -209 -223 -303q137 -45 211 -138.5t74 -232.5q0 -206 -143 -315t-392 -109t-389.5 107t-140.5 313zM276 401q0 -130 96.5 -205t280.5 -75q185 0 279 73.5 t94 202.5t-100.5 210t-276.5 81t-274.5 -79t-98.5 -208zM338 1075q0 -107 85 -175.5t230 -68.5q140 0 226 69t86 171q0 101 -78 171.5t-238 70.5t-235.5 -68.5t-75.5 -169.5z" />
<glyph unicode="9" horiz-adv-x="1257" d="M90 991q0 149 70.5 256t188 158t269.5 51q111 0 201.5 -31.5t162 -96.5t111.5 -176.5t40 -260.5q0 -83 -12.5 -166.5t-42 -171.5t-73.5 -167t-111.5 -151t-150.5 -126t-196 -89t-244 -43v142q281 25 450.5 177t225.5 425q-76 -81 -173.5 -124.5t-240.5 -43.5 q-100 0 -185 27t-150.5 80t-102.5 138t-37 193zM248 999q0 -144 94.5 -223.5t263.5 -79.5t269 83t100 220q0 135 -101 224.5t-262 89.5q-174 0 -269 -86t-95 -228z" />
<glyph unicode=":" horiz-adv-x="491" d="M115 109q0 54 38.5 94.5t92.5 40.5q52 0 91.5 -40.5t39.5 -94.5t-39 -93t-92 -39q-54 0 -92.5 39t-38.5 93zM115 963q0 54 38.5 94.5t92.5 40.5q52 0 91.5 -40.5t39.5 -94.5t-39 -93t-92 -39q-54 0 -92.5 39t-38.5 93z" />
<glyph unicode=";" horiz-adv-x="491" d="M109 -242l30 478h209l-133 -478h-106zM115 963q0 54 38.5 94.5t92.5 40.5q52 0 91.5 -40.5t39.5 -94.5t-39 -93t-92 -39q-54 0 -92.5 39t-38.5 93z" />
<glyph unicode="&#x3c;" horiz-adv-x="788" d="M117 635v139l530 508v-190l-409 -385l409 -385v-195z" />
<glyph unicode="=" horiz-adv-x="1181" d="M164 410v143h854v-143h-854zM164 856v143h854v-143h-854z" />
<glyph unicode="&#x3e;" horiz-adv-x="788" d="M141 127v190l410 385l-410 385v195l531 -508v-139z" />
<glyph unicode="?" horiz-adv-x="1148" d="M90 1266q88 86 210 138t269 52q201 0 322 -91t121 -261q0 -59 -12 -106t-30.5 -81.5t-53.5 -68t-69 -57.5t-89 -58q-102 -62 -129 -123.5t-27 -224.5h-158q0 74 2.5 121t12.5 92.5t25 74.5t44 61t65 58.5t93 61.5q88 55 127 105.5t39 132.5q0 98 -80 158.5t-209 60.5 q-109 0 -197.5 -40t-172.5 -118zM395 102q0 51 37 90t88 39q49 0 87 -39t38 -90t-37.5 -88t-87.5 -37q-51 0 -88 37t-37 88z" />
<glyph unicode="@" horiz-adv-x="1712" d="M117 717q0 211 95 380t264 264t380 95q160 0 299 -58t234.5 -155.5t150.5 -229t55 -276.5q0 -426 -303 -426q-74 0 -132 36t-87 93q-101 -129 -266 -129q-140 0 -226.5 72t-86.5 209q0 126 93 197t238 71q138 0 228 -55v121q0 67 -50 99t-161 32q-109 0 -209 -49l-45 88 q126 63 268 63q303 0 303 -227v-395q0 -59 36.5 -96.5t109.5 -37.5q188 0 188 332q0 183 -82.5 326t-227.5 221t-327 78q-279 0 -458 -176.5t-179 -462.5q0 -289 179 -468t458 -179q153 0 279 63l36 -90q-87 -39 -156.5 -54.5t-158.5 -15.5q-211 0 -380 95t-264 264.5 t-95 380.5zM608 598q0 -184 209 -184q71 0 135.5 34t100.5 89v165q-99 60 -238 60q-92 0 -149.5 -46t-57.5 -118z" />
<glyph unicode="A" d="M109 0l497 1434h176l498 -1434h-168l-123 365h-592l-125 -365h-163zM446 510h494l-158 471q-64 183 -88 283q-25 -100 -90 -287z" />
<glyph unicode="B" horiz-adv-x="1282" d="M188 0v1434h525q178 0 283.5 -90.5t105.5 -268.5q0 -219 -207 -293q54 -14 99 -39t86.5 -66t65 -105.5t23.5 -147.5q0 -210 -119.5 -317t-347.5 -107h-514zM348 145h365q297 0 297 271q0 134 -82 208t-223 74h-357v-553zM348 842h346q126 0 187 63t61 164 q0 102 -59 160.5t-176 58.5h-359v-446z" />
<glyph unicode="C" horiz-adv-x="1286" d="M127 715q0 211 73.5 380t208 265t304.5 96q148 0 259.5 -56t196.5 -173l-127 -97q-71 97 -145 139t-188 42q-185 0 -303.5 -166t-118.5 -426q0 -172 55.5 -308.5t152 -212t216.5 -75.5q113 0 197.5 47t156.5 141l111 -96q-176 -238 -469 -238q-172 0 -305 97t-204 264.5 t-71 376.5z" />
<glyph unicode="D" horiz-adv-x="1347" d="M188 0v1434h379q144 0 261.5 -42t206.5 -126.5t137.5 -221.5t48.5 -317q0 -152 -34.5 -274.5t-95 -206.5t-147 -139.5t-187.5 -81t-218 -25.5h-351zM348 145h211q502 0 502 576q0 276 -129.5 421.5t-376.5 145.5h-207v-1143z" />
<glyph unicode="E" horiz-adv-x="1202" d="M188 0v1434h867v-146h-707v-450h410v-146h-410v-547h737v-145h-897z" />
<glyph unicode="F" horiz-adv-x="1122" d="M188 0v1434h842v-146h-682v-475h393v-145h-393v-668h-160z" />
<glyph unicode="G" horiz-adv-x="1349" d="M127 715q0 211 73.5 380t208 265t304.5 96q148 0 259.5 -56t196.5 -173l-127 -97q-71 97 -145 139t-188 42q-185 0 -303.5 -166t-118.5 -426t121 -428t303 -168q181 0 275.5 109t94.5 319v12h-258v148h414v-140q0 -145 -40 -259t-111.5 -186.5t-167.5 -110.5t-211 -38 q-172 0 -305 97t-204 264.5t-71 376.5z" />
<glyph unicode="H" horiz-adv-x="1409" d="M188 0v1434h160v-613h713v613h160v-1434h-160v676h-713v-676h-160z" />
<glyph unicode="I" horiz-adv-x="557" d="M199 0v1434h159v-1434h-159z" />
<glyph unicode="J" horiz-adv-x="1183" d="M61 324l152 51q46 -126 117 -189t192 -63q171 0 247.5 102.5t76.5 329.5v879h160v-885q0 -288 -121.5 -430t-368.5 -142q-177 0 -286.5 87.5t-168.5 259.5z" />
<glyph unicode="K" horiz-adv-x="1314" d="M188 0v1434h160v-625v-193q72 103 209 281l416 537h174l-420 -539l500 -895h-183l-423 764l-273 -352v-412h-160z" />
<glyph unicode="L" horiz-adv-x="1177" d="M188 0v1434h160v-1289h709v-145h-869z" />
<glyph unicode="M" horiz-adv-x="1613" d="M188 0v1434h179l338 -859q80 -196 102 -278q22 74 102 278l342 859h174v-1434h-153v971v153q-18 -70 -86 -237l-383 -924l-377 924q-60 144 -84 237v-153v-971h-154z" />
<glyph unicode="N" horiz-adv-x="1409" d="M188 0v1434h156l621 -1000q62 -99 102 -180v98v1082h154v-1434h-150l-627 981q-62 99 -102 180v-98v-1063h-154z" />
<glyph unicode="O" horiz-adv-x="1443" d="M127 715q0 214 74 382.5t210.5 263.5t311.5 95t311 -94t209.5 -261.5t73.5 -381.5t-74.5 -383t-211.5 -264t-312 -95t-310.5 94t-208.5 262t-73 382zM287 719q0 -267 124 -431.5t314 -164.5q189 0 310.5 163t121.5 429t-125 431t-315 165q-188 0 -309 -162.5t-121 -429.5 z" />
<glyph unicode="P" horiz-adv-x="1265" d="M188 0v1434h537q99 0 181.5 -26.5t144.5 -78t96.5 -134.5t34.5 -189q0 -210 -133 -326.5t-353 -116.5h-348v-563h-160zM348 709h350q324 0 324 290q0 139 -78 214t-225 75h-371v-579z" />
<glyph unicode="Q" horiz-adv-x="1443" d="M127 715q0 214 74 382.5t210.5 263.5t311.5 95t311 -94t209.5 -261.5t73.5 -381.5q0 -197 -67 -358t-185 -259l92 -149l-131 -78l-90 148q-105 -46 -217 -46q-175 0 -310.5 94t-208.5 262t-73 382zM287 719q0 -267 124 -431.5t314 -164.5q73 0 135 24l-117 191l131 78 l115 -189q79 76 123.5 200.5t44.5 287.5q0 266 -125 431t-315 165q-188 0 -309 -162.5t-121 -429.5z" />
<glyph unicode="R" horiz-adv-x="1331" d="M188 0v1434h568q96 0 176.5 -25t141 -74t94.5 -127.5t34 -179.5q0 -164 -90 -268t-248 -137l316 -623h-185l-307 610h-340v-610h-160zM348 754h381q159 0 236 66.5t77 201.5q0 131 -74.5 198.5t-217.5 67.5h-402v-534z" />
<glyph unicode="S" horiz-adv-x="1212" d="M113 176l106 119q180 -172 381 -172q143 0 226 66t83 180q0 101 -73.5 167t-268.5 136q-233 84 -323 174t-90 244q0 170 122.5 268t325.5 98q137 0 238 -38t198 -115l-102 -125q-82 68 -161.5 100.5t-182.5 32.5q-140 0 -209.5 -59.5t-69.5 -151.5q0 -64 25 -106.5 t99 -87.5t216 -95q237 -86 326.5 -180t89.5 -254q0 -174 -128 -287t-347 -113q-141 0 -266.5 54.5t-214.5 144.5z" />
<glyph unicode="T" horiz-adv-x="1204" d="M100 1288v146h1004v-146h-422v-1288h-160v1288h-422z" />
<glyph unicode="U" d="M178 582v852h160v-848q0 -232 91 -347.5t276 -115.5q183 0 264.5 111.5t81.5 347.5v852h159v-848q0 -300 -129 -454.5t-385 -154.5t-387 153.5t-131 451.5z" />
<glyph unicode="V" horiz-adv-x="1368" d="M109 1434h167l320 -981q55 -164 88 -283q13 48 90 287l322 977h164l-488 -1434h-176z" />
<glyph unicode="W" horiz-adv-x="1753" d="M117 1434h159l168 -922q7 -43 27.5 -162.5t26.5 -156.5q26 150 67 315l228 926h172l227 -926q45 -178 68 -315q6 34 25.5 152.5t27.5 166.5l168 922h155l-286 -1434h-181l-225 918q-44 179 -70 323q-23 -129 -69 -323l-225 -918h-177z" />
<glyph unicode="X" horiz-adv-x="1294" d="M117 0l446 745l-409 689h180l184 -314q58 -99 131 -237q30 61 131 237l185 314h176l-410 -684l447 -750h-181l-219 375q-101 176 -131 237q-73 -138 -131 -237l-223 -375h-176z" />
<glyph unicode="Y" horiz-adv-x="1335" d="M96 1434h183l229 -412q111 -203 162 -307q73 149 161 307l230 412h178l-491 -865v-569h-160v567z" />
<glyph unicode="Z" horiz-adv-x="1286" d="M125 0v139l678 924q25 34 174 231h-162h-649v140h983v-140l-678 -923q-46 -63 -174 -232h162h690v-139h-1024z" />
<glyph unicode="[" horiz-adv-x="720" d="M195 -225v1659h397v-125h-248v-1409h248v-125h-397z" />
<glyph unicode="\" horiz-adv-x="870" d="M53 1618h152l612 -1802h-151z" />
<glyph unicode="]" horiz-adv-x="720" d="M129 -100h248v1409h-248v125h397v-1659h-397v125z" />
<glyph unicode="^" horiz-adv-x="1142" d="M96 782l418 652h115l418 -652h-177l-301 484l-301 -484h-172z" />
<glyph unicode="_" horiz-adv-x="1024" d="M0 -184h1024v-129h-1024v129z" />
<glyph unicode="`" horiz-adv-x="1024" d="M238 1546h219l211 -327h-121z" />
<glyph unicode="a" horiz-adv-x="1103" d="M106 322q0 88 34 155.5t92.5 108t131 60.5t154.5 20q156 0 268 -62v127q0 120 -57.5 179t-175.5 59q-152 0 -293 -82l-57 125q159 86 360 86q377 0 377 -348v-750h-154v131q-143 -154 -335 -154q-67 0 -125.5 18t-109.5 56.5t-80.5 108t-29.5 162.5zM258 332 q0 -116 58.5 -173t160.5 -57q98 0 176.5 44.5t132.5 117.5v217q-111 62 -276 62q-119 0 -185.5 -55t-66.5 -156z" />
<glyph unicode="b" horiz-adv-x="1144" d="M170 0v1407l154 86v-549q143 154 323 154q82 0 151 -32t122 -96.5t82.5 -170.5t29.5 -244q0 -275 -114 -426.5t-291 -151.5q-176 0 -303 144v-121h-154zM324 272q47 -71 123 -116t167 -45q133 0 200 112t67 330q0 200 -72 306t-201 106q-158 0 -284 -156v-537z" />
<glyph unicode="c" horiz-adv-x="1013" d="M113 532q0 115 26.5 210.5t71 160.5t104.5 109.5t125.5 65t134.5 20.5q196 0 340 -127l-92 -115q-62 56 -121 82.5t-137 26.5q-130 0 -213.5 -112t-83.5 -308q0 -199 81 -316.5t222 -117.5q74 0 131.5 28t116.5 86l92 -98q-72 -74 -154.5 -112t-191.5 -38 q-90 0 -170.5 34.5t-144 101.5t-100.5 175t-37 244z" />
<glyph unicode="d" horiz-adv-x="1144" d="M113 520q0 275 114 426.5t291 151.5q176 0 303 -144v453l154 86v-1493h-154v131q-143 -154 -323 -154q-82 0 -151 32t-122 96.5t-82.5 170.5t-29.5 244zM264 522q0 -200 72 -305.5t201 -105.5q159 0 284 155v537q-47 72 -123.5 117t-167.5 45q-266 0 -266 -443z" />
<glyph unicode="e" horiz-adv-x="1105" d="M113 543q0 253 124.5 404t319.5 151q205 0 318.5 -146t113.5 -383q0 -47 -6 -84h-717q11 -173 89.5 -273.5t209.5 -100.5q88 0 152 24t145 78l72 -111q-106 -67 -188.5 -96t-196.5 -29q-51 0 -101 13t-99.5 39.5t-91.5 72.5t-74.5 106.5t-51 146.5t-18.5 188zM266 610 h580q-9 164 -82 259.5t-209 95.5q-123 0 -199.5 -89.5t-89.5 -265.5z" />
<glyph unicode="f" horiz-adv-x="729" d="M96 946v129h148v148q0 264 254 264q76 0 135 -19v-145q-55 25 -125 25q-53 0 -82 -25t-29 -88v-160h211v-129h-211v-946h-153v946h-148z" />
<glyph unicode="g" horiz-adv-x="1144" d="M113 520q0 275 114 426.5t291 151.5q176 0 303 -144v121h154v-979q0 -248 -125.5 -365t-419.5 -126l-49 116q108 3 183.5 17t126 39.5t79 69t40 97.5t11.5 132v55q-143 -154 -323 -154q-82 0 -151 32t-122 96.5t-82.5 170.5t-29.5 244zM264 522q0 -200 72 -305.5 t201 -105.5q159 0 284 155v537q-47 72 -123.5 117t-167.5 45q-266 0 -266 -443z" />
<glyph unicode="h" horiz-adv-x="1161" d="M170 0v1407l154 86v-549q48 71 124 112.5t173 41.5q177 0 276.5 -109.5t99.5 -333.5v-655h-153v629q0 173 -62 254.5t-192 81.5q-120 0 -193 -83.5t-73 -252.5v-629h-154z" />
<glyph unicode="i" horiz-adv-x="514" d="M147 1376q0 46 33 78.5t80 32.5q43 0 75 -33t32 -78q0 -44 -32 -76t-75 -32q-47 0 -80 32t-33 76zM180 0v1075h154v-1075h-154z" />
<glyph unicode="j" horiz-adv-x="514" d="M-35 -281q60 18 97.5 36.5t62 40t36 56t15.5 72.5t4 103v1048h154v-1050q0 -99 -11.5 -161t-46 -114.5t-97 -85.5t-163.5 -59zM147 1376q0 46 33 78.5t80 32.5q43 0 75 -33t32 -78q0 -44 -32 -76t-75 -32q-47 0 -80 32t-33 76z" />
<glyph unicode="k" horiz-adv-x="1034" d="M170 0v1407l154 86v-928v-55l43 65l352 500h172l-283 -381l340 -694h-166l-272 565l-186 -256v-309h-154z" />
<glyph unicode="l" horiz-adv-x="514" d="M180 0v1407l154 86v-1493h-154z" />
<glyph unicode="m" horiz-adv-x="1736" d="M170 0v1075h154v-131q92 154 272 154q202 0 295 -185q54 87 129.5 136t196.5 49q171 0 263.5 -108t92.5 -335v-655h-154v629q0 181 -55.5 258.5t-175.5 77.5q-114 0 -177 -82t-63 -254v-629h-153v629q0 179 -58 257.5t-174 78.5q-239 0 -239 -336v-629h-154z" />
<glyph unicode="n" horiz-adv-x="1161" d="M170 0v1075h154v-131q48 71 124 112.5t173 41.5q177 0 276.5 -109.5t99.5 -333.5v-655h-153v629q0 173 -62 254.5t-192 81.5q-120 0 -193 -83.5t-73 -252.5v-629h-154z" />
<glyph unicode="o" horiz-adv-x="1159" d="M113 537q0 133 36.5 241t100.5 177t149.5 106t184.5 37t183 -35.5t146.5 -103.5t98 -174t35.5 -240q0 -265 -134 -416.5t-338 -151.5t-333 147.5t-129 412.5zM268 541q0 -208 84.5 -319t227.5 -111t228 111.5t85 318.5t-84.5 315.5t-228.5 108.5t-228 -108.5t-84 -315.5z " />
<glyph unicode="p" horiz-adv-x="1144" d="M170 -395v1470h154v-131q143 154 323 154q82 0 151 -32t122 -96.5t82.5 -170.5t29.5 -244q0 -275 -114 -426.5t-291 -151.5q-176 0 -303 144v-430zM324 272q47 -71 123 -116t167 -45q133 0 200 112t67 330q0 200 -72 306t-201 106q-158 0 -284 -156v-537z" />
<glyph unicode="q" horiz-adv-x="1144" d="M113 520q0 275 114 426.5t291 151.5q176 0 303 -144v121h154v-1384l-154 -86v526q-143 -154 -323 -154q-82 0 -151 32t-122 96.5t-82.5 170.5t-29.5 244zM264 522q0 -200 72 -305.5t201 -105.5q159 0 284 155v537q-47 72 -123.5 117t-167.5 45q-266 0 -266 -443z" />
<glyph unicode="r" horiz-adv-x="833" d="M170 0v1075h154v-133q38 67 110.5 111.5t155.5 44.5q106 0 168 -27l-39 -156q-71 41 -162 41q-112 0 -172.5 -85t-60.5 -240v-631h-154z" />
<glyph unicode="s" horiz-adv-x="956" d="M88 115l90 112q134 -118 293 -118q108 0 162.5 43t54.5 122q0 65 -54.5 111t-199.5 109q-87 37 -139.5 66.5t-92.5 67.5t-56.5 84.5t-16.5 110.5q0 122 94.5 198.5t241.5 76.5q205 0 344 -115l-86 -113q-66 52 -125.5 74.5t-142.5 22.5t-131 -36.5t-48 -96.5 q0 -65 47.5 -105t190.5 -104q53 -24 82.5 -38.5t69 -36t61 -39t46 -42.5t36 -51.5t19.5 -61t8 -75.5q0 -101 -54.5 -171.5t-135.5 -101.5t-179 -31q-207 0 -379 138z" />
<glyph unicode="t" horiz-adv-x="761" d="M80 946v129h133v332l154 86v-418h266v-129h-266v-700q0 -72 23.5 -100.5t84.5 -28.5q79 0 152 30l-11 -133q-87 -37 -198 -37q-103 0 -154 57t-51 187v725h-133z" />
<glyph unicode="u" horiz-adv-x="1161" d="M164 420v655h153v-629q0 -172 62 -253.5t192 -81.5q120 0 193.5 83t73.5 252v629h153v-1075h-153v131q-48 -71 -124 -112.5t-173 -41.5q-177 0 -277 109.5t-100 333.5z" />
<glyph unicode="v" horiz-adv-x="1069" d="M82 1075h164l274 -846l17 -51l16 51l274 846h160l-385 -1075h-135z" />
<glyph unicode="w" horiz-adv-x="1495" d="M96 1075h158l168 -710q5 -22 17.5 -84.5l13.5 -67.5q22 109 34 152l193 710h139l193 -710q16 -59 35 -152q3 16 14.5 73.5t15.5 78.5l168 710h154l-285 -1075h-141l-195 721q-23 84 -33 151q-12 -76 -32 -151l-195 -721h-137z" />
<glyph unicode="x" horiz-adv-x="1032" d="M104 0l332 555l-309 520h170l190 -334l33 -59l33 59l192 334h160l-309 -516l332 -559h-170l-213 373l-33 59l-33 -59l-215 -373h-160z" />
<glyph unicode="y" horiz-adv-x="1087" d="M82 1075h162l262 -780l37 -111l37 109l264 782h162l-535 -1454h-154l148 391z" />
<glyph unicode="z" horiz-adv-x="1007" d="M111 0v113l587 833h-540v129h714v-112l-587 -834h587v-129h-761z" />
<glyph unicode="{" horiz-adv-x="813" d="M117 535v143h49q70 0 95.5 29.5t25.5 117.5v183q0 218 101 324t317 112v-129q-143 -15 -205 -81.5t-62 -207.5v-143q0 -127 -26 -187t-95 -92q69 -32 95 -91.5t26 -186.5v-133q0 -141 62 -207.5t205 -81.5v-129q-216 6 -317 112t-101 324v176q0 88 -25.5 118t-95.5 30 h-49z" />
<glyph unicode="|" horiz-adv-x="622" d="M238 -379v2017h147v-2017h-147z" />
<glyph unicode="}" horiz-adv-x="813" d="M109 -96q143 15 204.5 81.5t61.5 207.5v143q0 127 26 186.5t95 91.5q-69 32 -95 92t-26 187v133q0 141 -61.5 207.5t-204.5 81.5v129q216 -6 316.5 -112t100.5 -324v-177q0 -88 25.5 -117.5t95.5 -29.5h49v-143h-49q-70 0 -95.5 -30t-25.5 -118v-182q0 -218 -100.5 -324 t-316.5 -112v129z" />
<glyph unicode="~" horiz-adv-x="1130" d="M88 655q55 134 121.5 196t171.5 62q54 0 95 -16t97 -53q69 -44 106 -62t71 -18q54 0 84 33t73 129l135 -62q-55 -135 -121 -196.5t-171 -61.5q-56 0 -97.5 17t-95.5 53q-122 80 -176 80q-53 0 -85.5 -35t-72.5 -127z" />
<glyph unicode="&#xa1;" horiz-adv-x="538" d="M145 1331q0 51 37.5 88t87.5 37q51 0 88 -37t37 -88t-37 -90t-88 -39q-49 0 -87 39t-38 90zM190 0v674l37 375h86l35 -375v-674h-158z" />
<glyph unicode="&#xa2;" horiz-adv-x="1013" d="M113 725q0 125 30.5 226t83 167t117.5 107t141 57v193h158v-189q153 -19 272 -123l-88 -110q-69 58 -124.5 81t-137.5 23q-130 0 -213.5 -112t-83.5 -308q0 -199 81 -316.5t222 -117.5q75 0 133 28t117 85l90 -97q-118 -121 -268 -143v-199h-158v199q-162 30 -267 171 t-105 378z" />
<glyph unicode="&#xa3;" horiz-adv-x="1251" d="M172 0v143q103 118 151.5 218t49.5 239h-201v139h178q-17 46 -67 129q-38 61 -54 110.5t-16 119.5q0 168 129 263t330 95q130 0 237 -44.5t205 -133.5l-96 -117q-158 152 -350 152q-143 0 -220 -61t-77 -152q0 -84 65 -193q52 -86 74 -168h311v-139h-297 q-4 -142 -50 -250.5t-122 -204.5h778v-145h-958z" />
<glyph unicode="&#xa4;" horiz-adv-x="1218" d="M121 715q0 353 149 547t406 194q148 0 245.5 -53.5t180.5 -175.5l-119 -92q-69 99 -135.5 139.5t-175.5 40.5q-152 0 -247.5 -96.5t-129.5 -276.5h551v-129h-567q-3 -46 -3 -94q0 -39 3 -80h567v-129h-553q33 -189 129 -290t252 -101q107 0 182 44.5t150 141.5l102 -90 q-90 -118 -190.5 -178t-247.5 -60q-255 0 -402 194.5t-147 543.5z" />
<glyph unicode="&#xa5;" horiz-adv-x="1253" d="M76 1434h182l213 -412q103 -198 158 -317q65 139 157 317l213 412h179l-471 -865v-159h317v-142h-317v-268h-160v268h-336v142h336v157z" />
<glyph unicode="&#xa6;" horiz-adv-x="1490" d="M41 707l340 247q12 9 18 7q11 -4 4 -21l-61 -164h338v387l-164 -61q-16 -7 -20 4q-2 7 6 18l248 340l247 -340q9 -12 7 -18q-4 -11 -21 -4l-164 61v-387h330l-62 164q-7 17 5 21q6 2 18 -7l340 -247l-340 -248q-11 -8 -18 -6q-11 4 -5 20l62 164h-330v-367l164 62 q17 7 21 -4q2 -7 -7 -19l-247 -340l-248 340q-9 11 -6 19q4 11 20 4l164 -62v367h-338l61 -164q7 -16 -4 -20q-7 -2 -18 6z" />
<glyph unicode="&#xa7;" horiz-adv-x="1286" d="M113 571q0 215 254 357q-111 84 -111 217q0 141 110.5 226t286.5 85q213 0 396 -147l-95 -115q-82 68 -152 93.5t-173 25.5q-95 0 -155 -43t-60 -113q0 -73 64 -122.5t229 -90.5q181 -45 281.5 -98t143 -122.5t42.5 -174.5q0 -214 -254 -356q110 -83 110 -218 q0 -141 -110.5 -226t-286.5 -85q-211 0 -395 148l94 114q82 -68 152 -93.5t173 -25.5q95 0 155 43t60 113q0 73 -63.5 122.5t-228.5 90.5q-181 45 -281.5 98t-143 122.5t-42.5 174.5zM270 584q0 -63 23.5 -105t95.5 -81t205 -72q124 -31 197 -62q107 50 166 120.5t59 152.5 q0 63 -23.5 105t-95.5 81t-205 72q-127 32 -196 61q-108 -50 -167 -120t-59 -152z" />
<glyph unicode="&#xa8;" horiz-adv-x="1024" d="M201 1348q0 46 33.5 80t80.5 34q44 0 77.5 -34t33.5 -80t-33.5 -79.5t-77.5 -33.5q-47 0 -80.5 33.5t-33.5 79.5zM598 1348q0 46 33.5 80t79.5 34t79 -34t33 -80t-33 -79.5t-79 -33.5t-79.5 33.5t-33.5 79.5z" />
<glyph unicode="&#xa9;" horiz-adv-x="1712" d="M117 717q0 216 97 385.5t265 261.5t377 92t377 -92t265 -261.5t97 -385.5t-97 -385.5t-265 -262t-377 -92.5t-377 92.5t-265 262t-97 385.5zM217 717q0 -187 84 -335t229.5 -229t325.5 -81t325.5 81t229.5 229t84 335t-84 335t-229.5 229t-325.5 81t-325.5 -81 t-229.5 -229t-84 -335zM516 715q0 186 96.5 307t247.5 121q169 0 275 -139l-86 -68q-45 58 -87 81t-104 23q-101 0 -166 -90t-65 -231q0 -142 65.5 -234t165.5 -92q63 0 110 27t93 84l80 -70q-108 -143 -285 -143q-152 0 -246 120.5t-94 303.5z" />
<glyph unicode="&#xaa;" horiz-adv-x="931" d="M96 838q0 71 27.5 126t75 87.5t106.5 48.5t127 16q119 0 207 -43v88q0 178 -178 178q-127 0 -236 -65l-55 110q137 72 299 72q309 0 309 -280v-598h-139v90q-109 -109 -260 -109q-54 0 -102.5 15t-90 46t-66 87t-24.5 131zM233 846q0 -86 44.5 -129t121.5 -43 q149 0 240 121v163q-90 46 -213 46q-90 0 -141.5 -41.5t-51.5 -116.5z" />
<glyph unicode="&#xab;" horiz-adv-x="1179" d="M61 537l416 538h174l-415 -536l415 -539h-174zM498 537l415 538h174l-415 -536l415 -539h-174z" />
<glyph unicode="&#xac;" horiz-adv-x="1290" d="M113 635v143h809l-62 154q-5 10 6 18q9 6 23 -4l360 -239l-360 -240q-14 -10 -23 -4q-11 7 -6 18l62 154h-809z" />
<glyph unicode="&#xad;" horiz-adv-x="659" d="M104 674v149h451v-149h-451z" />
<glyph unicode="&#xae;" horiz-adv-x="1712" d="M117 717q0 216 97 385.5t265 261.5t377 92t377 -92t265 -261.5t97 -385.5t-97 -385.5t-265 -262t-377 -92.5t-377 92.5t-265 262t-97 385.5zM217 717q0 -187 84 -335t229.5 -229t325.5 -81t325.5 81t229.5 229t84 335t-84 335t-229.5 229t-325.5 81t-325.5 -81 t-229.5 -229t-84 -335zM590 322v817h332q117 0 189.5 -60t72.5 -176q0 -91 -50.5 -150.5t-138.5 -80.5l183 -350h-127l-177 342h-176v-342h-108zM698 766h205q88 0 130 33.5t42 103.5q0 68 -41.5 103.5t-118.5 35.5h-217v-276z" />
<glyph unicode="&#xaf;" horiz-adv-x="1024" d="M233 1266v143h558v-143h-558z" />
<glyph unicode="&#xb0;" horiz-adv-x="974" d="M104 1065q0 165 109 278t274 113q166 0 274.5 -112.5t108.5 -278.5q0 -170 -108.5 -282.5t-274.5 -112.5q-165 0 -274 113t-109 282zM240 1065q0 -120 68.5 -194t178.5 -74q112 0 180 74t68 194q0 115 -68.5 189.5t-179.5 74.5q-109 0 -178 -74.5t-69 -189.5z" />
<glyph unicode="&#xb1;" horiz-adv-x="1490" d="M41 707l340 247q12 9 18 7q11 -4 4 -21l-61 -164h338v387l-164 -61q-16 -7 -20 4q-2 7 6 18l248 340l247 -340q9 -12 7 -18q-4 -11 -21 -4l-164 61v-387h330l-62 164q-7 17 5 21q6 2 18 -7l340 -247l-340 -248q-11 -8 -18 -6q-11 4 -5 20l62 164h-330v-367l164 62 q17 7 21 -4q2 -7 -7 -19l-247 -340l-248 340q-9 11 -6 19q4 11 20 4l164 -62v367h-338l61 -164q7 -16 -4 -20q-7 -2 -18 6z" />
<glyph unicode="&#xb2;" horiz-adv-x="1490" d="M41 707l340 247q12 9 18 7q11 -4 4 -21l-61 -164h338v387l-164 -61q-16 -7 -20 4q-2 7 6 18l248 340l247 -340q9 -12 7 -18q-4 -11 -21 -4l-164 61v-387h330l-62 164q-7 17 5 21q6 2 18 -7l340 -247l-340 -248q-11 -8 -18 -6q-11 4 -5 20l62 164h-330v-367l164 62 q17 7 21 -4q2 -7 -7 -19l-247 -340l-248 340q-9 11 -6 19q4 11 20 4l164 -62v367h-338l61 -164q7 -16 -4 -20q-7 -2 -18 6z" />
<glyph unicode="&#xb3;" horiz-adv-x="1490" d="M41 707l340 247q12 9 18 7q11 -4 4 -21l-61 -164h338v387l-164 -61q-16 -7 -20 4q-2 7 6 18l248 340l247 -340q9 -12 7 -18q-4 -11 -21 -4l-164 61v-387h330l-62 164q-7 17 5 21q6 2 18 -7l340 -247l-340 -248q-11 -8 -18 -6q-11 4 -5 20l62 164h-330v-367l164 62 q17 7 21 -4q2 -7 -7 -19l-247 -340l-248 340q-9 11 -6 19q4 11 20 4l164 -62v367h-338l61 -164q7 -16 -4 -20q-7 -2 -18 6z" />
<glyph unicode="&#xb4;" horiz-adv-x="1024" d="M356 1219l211 327h219l-309 -327h-121z" />
<glyph unicode="&#xb6;" horiz-adv-x="1409" d="M96 985q0 139 64.5 242.5t169 155t231.5 51.5h658v-1813h-158v1673h-187v-1673h-157v914h-156q-128 0 -232 51t-168.5 155t-64.5 244z" />
<glyph unicode="&#xb7;" horiz-adv-x="491" d="M115 752q0 54 38.5 94.5t92.5 40.5q52 0 91.5 -40.5t39.5 -94.5t-39 -92.5t-92 -38.5q-54 0 -92.5 38.5t-38.5 92.5z" />
<glyph unicode="&#xb8;" horiz-adv-x="1024" d="M279 -322l38 66q85 -55 189 -55q137 0 137 88q0 31 -16.5 49t-48.5 18q-59 0 -99 -37l-73 29l51 164h92l-35 -104q45 28 113 28q50 0 93.5 -35t43.5 -106q0 -93 -68 -135.5t-176 -42.5q-129 0 -241 73z" />
<glyph unicode="&#xb9;" horiz-adv-x="1490" d="M41 707l340 247q12 9 18 7q11 -4 4 -21l-61 -164h338v387l-164 -61q-16 -7 -20 4q-2 7 6 18l248 340l247 -340q9 -12 7 -18q-4 -11 -21 -4l-164 61v-387h330l-62 164q-7 17 5 21q6 2 18 -7l340 -247l-340 -248q-11 -8 -18 -6q-11 4 -5 20l62 164h-330v-367l164 62 q17 7 21 -4q2 -7 -7 -19l-247 -340l-248 340q-9 11 -6 19q4 11 20 4l164 -62v367h-338l61 -164q7 -16 -4 -20q-7 -2 -18 6z" />
<glyph unicode="&#xba;" horiz-adv-x="983" d="M111 1008q0 213 108 330.5t277 117.5q168 0 272 -114.5t104 -327.5q0 -212 -108.5 -332.5t-276.5 -120.5q-167 0 -271.5 117.5t-104.5 329.5zM250 1012q0 -160 65 -244t177 -84t176.5 84t64.5 244q0 158 -64.5 239.5t-176.5 81.5t-177 -81.5t-65 -239.5z" />
<glyph unicode="&#xbb;" horiz-adv-x="1179" d="M92 0l416 537l-416 538h174l416 -536l-416 -539h-174zM528 0l416 537l-416 538h174l416 -536l-416 -539h-174z" />
<glyph unicode="&#xbc;" horiz-adv-x="1490" d="M41 707l340 247q12 9 18 7q11 -4 4 -21l-61 -164h338v387l-164 -61q-16 -7 -20 4q-2 7 6 18l248 340l247 -340q9 -12 7 -18q-4 -11 -21 -4l-164 61v-387h330l-62 164q-7 17 5 21q6 2 18 -7l340 -247l-340 -248q-11 -8 -18 -6q-11 4 -5 20l62 164h-330v-367l164 62 q17 7 21 -4q2 -7 -7 -19l-247 -340l-248 340q-9 11 -6 19q4 11 20 4l164 -62v367h-338l61 -164q7 -16 -4 -20q-7 -2 -18 6z" />
<glyph unicode="&#xbd;" horiz-adv-x="1490" d="M41 707l340 247q12 9 18 7q11 -4 4 -21l-61 -164h338v387l-164 -61q-16 -7 -20 4q-2 7 6 18l248 340l247 -340q9 -12 7 -18q-4 -11 -21 -4l-164 61v-387h330l-62 164q-7 17 5 21q6 2 18 -7l340 -247l-340 -248q-11 -8 -18 -6q-11 4 -5 20l62 164h-330v-367l164 62 q17 7 21 -4q2 -7 -7 -19l-247 -340l-248 340q-9 11 -6 19q4 11 20 4l164 -62v367h-338l61 -164q7 -16 -4 -20q-7 -2 -18 6z" />
<glyph unicode="&#xbe;" horiz-adv-x="1490" d="M41 707l340 247q12 9 18 7q11 -4 4 -21l-61 -164h338v387l-164 -61q-16 -7 -20 4q-2 7 6 18l248 340l247 -340q9 -12 7 -18q-4 -11 -21 -4l-164 61v-387h330l-62 164q-7 17 5 21q6 2 18 -7l340 -247l-340 -248q-11 -8 -18 -6q-11 4 -5 20l62 164h-330v-367l164 62 q17 7 21 -4q2 -7 -7 -19l-247 -340l-248 340q-9 11 -6 19q4 11 20 4l164 -62v367h-338l61 -164q7 -16 -4 -20q-7 -2 -18 6z" />
<glyph unicode="&#xbf;" horiz-adv-x="1148" d="M137 330q0 59 12 106t30.5 81.5t54 68t69 57t88.5 57.5q102 62 129 124t27 225h158q0 -74 -2.5 -121t-12.5 -92.5t-25 -74.5t-44 -61t-65 -58.5t-93 -61.5q-88 -55 -127 -105.5t-39 -132.5q0 -98 80 -158.5t209 -60.5q109 0 197.5 40t172.5 118l103 -113 q-89 -86 -210.5 -138.5t-268.5 -52.5q-201 0 -322 91.5t-121 261.5zM504 1331q0 51 37.5 88t87.5 37q51 0 88 -37t37 -88t-37 -90t-88 -39q-49 0 -87 39t-38 90z" />
<glyph unicode="&#xc0;" d="M109 0l497 1434h176l498 -1434h-168l-123 365h-592l-125 -365h-163zM328 1853h219l211 -327h-121zM446 510h494l-158 471q-64 183 -88 283q-25 -100 -90 -287z" />
<glyph unicode="&#xc1;" d="M109 0l497 1434h176l498 -1434h-168l-123 365h-592l-125 -365h-163zM446 510h494l-158 471q-64 183 -88 283q-25 -100 -90 -287zM629 1526l211 327h219l-309 -327h-121z" />
<glyph unicode="&#xc2;" d="M109 0l497 1434h176l498 -1434h-168l-123 365h-592l-125 -365h-163zM356 1485l252 327h172l252 -327h-133l-207 211l-207 -211h-129zM446 510h494l-158 471q-64 183 -88 283q-25 -100 -90 -287z" />
<glyph unicode="&#xc3;" d="M109 0l497 1434h176l498 -1434h-168l-123 365h-592l-125 -365h-163zM330 1538q0 130 60 198t149 68q82 0 151 -53q74 -57 103.5 -73.5t58.5 -16.5q63 0 80 137h127q0 -130 -60 -198t-149 -68q-83 0 -152 53q-80 61 -105 75.5t-56 14.5t-51 -31t-29 -106h-127zM446 510 h494l-158 471q-64 183 -88 283q-25 -100 -90 -287z" />
<glyph unicode="&#xc4;" d="M109 0l497 1434h176l498 -1434h-168l-123 365h-592l-125 -365h-163zM385 1655q0 46 34 80t81 34q44 0 77 -34t33 -80t-33 -79.5t-77 -33.5q-47 0 -81 33.5t-34 79.5zM446 510h494l-158 471q-64 183 -88 283q-25 -100 -90 -287zM782 1655q0 46 33.5 80t79.5 34t79.5 -34 t33.5 -80t-33.5 -79.5t-79.5 -33.5t-79.5 33.5t-33.5 79.5z" />
<glyph unicode="&#xc5;" d="M109 0l471 1348q-59 31 -93 88t-34 127q0 101 68 169t171 68q104 0 172 -68t68 -169q0 -68 -33.5 -125t-91.5 -88l473 -1350h-168l-123 365h-592l-125 -365h-163zM446 510h494l-158 471q-64 183 -88 283q-25 -100 -90 -287zM549 1563q0 -65 39 -106.5t104 -41.5 t104.5 41.5t39.5 106.5q0 64 -39.5 104.5t-104.5 40.5t-104 -40.5t-39 -104.5z" />
<glyph unicode="&#xc6;" horiz-adv-x="2043" d="M49 0l963 1434h884v-146h-714v-450h417v-146h-417v-547h745v-145h-897v365h-559l-240 -365h-182zM565 510h465v455q0 48 2 143.5t2 120.5q-22 -36 -133 -207z" />
<glyph unicode="&#xc7;" horiz-adv-x="1286" d="M127 715q0 211 73.5 380t208 265t304.5 96q148 0 259.5 -56t196.5 -173l-127 -97q-71 97 -145 139t-188 42q-185 0 -303.5 -166t-118.5 -426q0 -172 55.5 -308.5t152 -212t216.5 -75.5q113 0 197.5 47t156.5 141l111 -96q-168 -230 -451 -238l-27 -81q45 28 113 28 q50 0 93.5 -35t43.5 -106q0 -93 -67.5 -135.5t-175.5 -42.5q-130 0 -242 73l39 66q85 -55 188 -55q137 0 137 88q0 31 -16.5 49t-48.5 18q-58 0 -98 -37l-74 29l45 146q-230 31 -369 234t-139 499z" />
<glyph unicode="&#xc8;" horiz-adv-x="1202" d="M188 0v1434h867v-146h-707v-450h410v-146h-410v-547h737v-145h-897zM301 1853h219l211 -327h-121z" />
<glyph unicode="&#xc9;" horiz-adv-x="1202" d="M188 0v1434h867v-146h-707v-450h410v-146h-410v-547h737v-145h-897zM522 1526l211 327h219l-309 -327h-121z" />
<glyph unicode="&#xca;" horiz-adv-x="1202" d="M188 0v1434h867v-146h-707v-450h410v-146h-410v-547h737v-145h-897zM283 1526l252 327h172l251 -327h-133l-207 211l-206 -211h-129z" />
<glyph unicode="&#xcb;" horiz-adv-x="1202" d="M188 0v1434h867v-146h-707v-450h410v-146h-410v-547h737v-145h-897zM311 1655q0 46 34 80t81 34q44 0 77.5 -34t33.5 -80t-33.5 -79.5t-77.5 -33.5q-47 0 -81 33.5t-34 79.5zM709 1655q0 46 33 80t79 34t79.5 -34t33.5 -80t-33.5 -79.5t-79.5 -33.5t-79 33.5t-33 79.5z " />
<glyph unicode="&#xcc;" horiz-adv-x="557" d="M-78 1853h219l211 -327h-121zM199 0v1434h159v-1434h-159z" />
<glyph unicode="&#xcd;" horiz-adv-x="557" d="M199 0v1434h159v-1434h-159zM207 1526l211 327h219l-309 -327h-121z" />
<glyph unicode="&#xce;" horiz-adv-x="557" d="M-66 1516l252 327h172l252 -327h-133l-207 210l-207 -210h-129zM199 0v1434h159v-1434h-159z" />
<glyph unicode="&#xcf;" horiz-adv-x="557" d="M-35 1663q0 46 34 80.5t81 34.5q44 0 77 -34.5t33 -80.5t-33 -79.5t-77 -33.5q-47 0 -81 33.5t-34 79.5zM199 0v1434h159v-1434h-159zM362 1663q0 46 33.5 80.5t79.5 34.5t79.5 -34.5t33.5 -80.5t-33.5 -79.5t-79.5 -33.5t-79.5 33.5t-33.5 79.5z" />
<glyph unicode="&#xd0;" horiz-adv-x="1396" d="M82 678v143h127v613h379q144 0 261.5 -42t206 -126.5t137 -221.5t48.5 -317q0 -152 -34.5 -274.5t-95 -206.5t-147 -139.5t-187.5 -81t-218 -25.5h-350v678h-127zM365 145h215q501 0 501 576q0 276 -129.5 421.5t-376.5 145.5h-210v-467h290v-143h-290v-533z" />
<glyph unicode="&#xd1;" horiz-adv-x="1409" d="M188 0v1434h156l621 -1000q62 -99 102 -180v98v1082h154v-1434h-150l-627 981q-62 99 -102 180v-98v-1063h-154zM350 1546q0 130 60 198t149 68q83 0 152 -53q74 -57 103 -73.5t58 -16.5q63 0 80 137h127q0 -130 -60 -198t-149 -68q-82 0 -151 53q-79 60 -105 75t-57 15 t-51 -31t-29 -106h-127z" />
<glyph unicode="&#xd2;" horiz-adv-x="1443" d="M127 715q0 214 74 382.5t210.5 263.5t311.5 95t311 -94t209.5 -261.5t73.5 -381.5t-74.5 -383t-211.5 -264t-312 -95t-310.5 94t-208.5 262t-73 382zM287 719q0 -267 124 -431.5t314 -164.5q189 0 310.5 163t121.5 429t-125 431t-315 165q-188 0 -309 -162.5t-121 -429.5 zM373 1853h219l211 -327h-121z" />
<glyph unicode="&#xd3;" horiz-adv-x="1443" d="M127 715q0 214 74 382.5t210.5 263.5t311.5 95t311 -94t209.5 -261.5t73.5 -381.5t-74.5 -383t-211.5 -264t-312 -95t-310.5 94t-208.5 262t-73 382zM287 719q0 -267 124 -431.5t314 -164.5q189 0 310.5 163t121.5 429t-125 431t-315 165q-188 0 -309 -162.5t-121 -429.5 zM635 1526l211 327h219l-309 -327h-121z" />
<glyph unicode="&#xd4;" horiz-adv-x="1443" d="M127 715q0 214 74 382.5t210.5 263.5t311.5 95t311 -94t209.5 -261.5t73.5 -381.5t-74.5 -383t-211.5 -264t-312 -95t-310.5 94t-208.5 262t-73 382zM287 719q0 -267 124 -431.5t314 -164.5q189 0 310.5 163t121.5 429t-125 431t-315 165q-188 0 -309 -162.5t-121 -429.5 zM381 1516l252 327h172l252 -327h-133l-207 210l-207 -210h-129z" />
<glyph unicode="&#xd5;" horiz-adv-x="1443" d="M127 715q0 214 74 382.5t210.5 263.5t311.5 95t311 -94t209.5 -261.5t73.5 -381.5t-74.5 -383t-211.5 -264t-312 -95t-310.5 94t-208.5 262t-73 382zM287 719q0 -267 124 -431.5t314 -164.5q189 0 310.5 163t121.5 429t-125 431t-315 165q-188 0 -309 -162.5t-121 -429.5 zM354 1538q0 130 60 198t149 68q83 0 152 -53q74 -57 103.5 -73.5t58.5 -16.5q32 0 51 32.5t28 104.5h127q0 -130 -60 -198t-149 -68q-82 0 -151 53q-79 60 -105 75t-57 15t-51 -31t-29 -106h-127z" />
<glyph unicode="&#xd6;" horiz-adv-x="1443" d="M127 715q0 214 74 382.5t210.5 263.5t311.5 95t311 -94t209.5 -261.5t73.5 -381.5t-74.5 -383t-211.5 -264t-312 -95t-310.5 94t-208.5 262t-73 382zM287 719q0 -267 124 -431.5t314 -164.5q189 0 310.5 163t121.5 429t-125 431t-315 165q-188 0 -309 -162.5t-121 -429.5 zM410 1655q0 46 33.5 80t80.5 34q44 0 77.5 -34t33.5 -80t-33.5 -79.5t-77.5 -33.5q-47 0 -80.5 33.5t-33.5 79.5zM807 1655q0 46 33.5 80t79.5 34t79 -34t33 -80t-33 -79.5t-79 -33.5t-79.5 33.5t-33.5 79.5z" />
<glyph unicode="&#xd7;" horiz-adv-x="1490" d="M41 707l340 247q12 9 18 7q11 -4 4 -21l-61 -164h338v387l-164 -61q-16 -7 -20 4q-2 7 6 18l248 340l247 -340q9 -12 7 -18q-4 -11 -21 -4l-164 61v-387h330l-62 164q-7 17 5 21q6 2 18 -7l340 -247l-340 -248q-11 -8 -18 -6q-11 4 -5 20l62 164h-330v-367l164 62 q17 7 21 -4q2 -7 -7 -19l-247 -340l-248 340q-9 11 -6 19q4 11 20 4l164 -62v367h-338l61 -164q7 -16 -4 -20q-7 -2 -18 6z" />
<glyph unicode="&#xd8;" horiz-adv-x="1443" d="M127 715q0 214 74 382.5t210.5 263.5t311.5 95q121 0 227 -47l58 127h141l-88 -195q121 -95 188.5 -256.5t67.5 -365.5q0 -214 -74.5 -383t-211.5 -264t-312 -95q-140 0 -254 60l-64 -139h-141l98 213q-111 99 -171 254.5t-60 349.5zM281 719q0 -291 145 -459l463 1016 q-80 41 -172 41q-190 0 -313 -164t-123 -434zM526 172q88 -55 199 -55q191 0 314.5 164t123.5 434q0 154 -44.5 278.5t-123.5 204.5z" />
<glyph unicode="&#xd9;" d="M178 582v852h160v-848q0 -232 91 -347.5t276 -115.5q183 0 264.5 111.5t81.5 347.5v852h159v-848q0 -300 -129 -454.5t-385 -154.5t-387 153.5t-131 451.5zM346 1823h219l211 -328h-121z" />
<glyph unicode="&#xda;" d="M178 582v852h160v-848q0 -232 91 -347.5t276 -115.5q183 0 264.5 111.5t81.5 347.5v852h159v-848q0 -300 -129 -454.5t-385 -154.5t-387 153.5t-131 451.5zM608 1495l211 328h219l-309 -328h-121z" />
<glyph unicode="&#xdb;" d="M178 582v852h160v-848q0 -232 91 -347.5t276 -115.5q183 0 264.5 111.5t81.5 347.5v852h159v-848q0 -300 -129 -454.5t-385 -154.5t-387 153.5t-131 451.5zM356 1526l252 327h172l252 -327h-133l-207 211l-207 -211h-129z" />
<glyph unicode="&#xdc;" d="M178 582v852h160v-848q0 -232 91 -347.5t276 -115.5q183 0 264.5 111.5t81.5 347.5v852h159v-848q0 -300 -129 -454.5t-385 -154.5t-387 153.5t-131 451.5zM383 1655q0 46 34 80t81 34q44 0 77 -34t33 -80t-33 -79.5t-77 -33.5q-47 0 -81 33.5t-34 79.5zM780 1655 q0 46 33.5 80t79.5 34t79.5 -34t33.5 -80t-33.5 -79.5t-79.5 -33.5t-79.5 33.5t-33.5 79.5z" />
<glyph unicode="&#xdd;" horiz-adv-x="1335" d="M96 1434h183l229 -412q111 -203 162 -307q73 149 161 307l230 412h178l-491 -865v-569h-160v567zM592 1487l211 328h219l-309 -328h-121z" />
<glyph unicode="&#xde;" horiz-adv-x="1265" d="M188 0v1434h160v-258h377q99 0 181.5 -26.5t144.5 -78t96.5 -134.5t34.5 -189q0 -210 -133 -326.5t-353 -116.5h-348v-305h-160zM348 451h350q324 0 324 290q0 139 -78 214t-225 75h-371v-579z" />
<glyph unicode="&#xdf;" horiz-adv-x="1171" d="M170 -395v1452q0 206 105.5 318t285.5 112q174 0 280.5 -103t106.5 -260q0 -214 -186 -297q58 -14 107.5 -40t94 -68.5t70 -108t25.5 -147.5q0 -99 -27.5 -178t-75.5 -132t-116 -88t-145 -50t-167 -15h-30v135h37q370 0 370 314q0 77 -29.5 136t-81.5 94t-116 52t-139 17 h-41v133h47q120 0 185 60.5t65 180.5q0 105 -65 168.5t-173 63.5q-104 0 -168.5 -71t-64.5 -200v-1392z" />
<glyph unicode="&#xe0;" horiz-adv-x="1103" d="M106 322q0 88 34 155.5t92.5 108t131 60.5t154.5 20q156 0 268 -62v127q0 120 -57.5 179t-175.5 59q-152 0 -293 -82l-57 125q159 86 360 86q377 0 377 -348v-750h-154v131q-143 -154 -335 -154q-67 0 -125.5 18t-109.5 56.5t-80.5 108t-29.5 162.5zM223 1546h219 l211 -327h-121zM258 332q0 -116 58.5 -173t160.5 -57q98 0 176.5 44.5t132.5 117.5v217q-111 62 -276 62q-119 0 -185.5 -55t-66.5 -156z" />
<glyph unicode="&#xe1;" horiz-adv-x="1103" d="M106 322q0 88 34 155.5t92.5 108t131 60.5t154.5 20q156 0 268 -62v127q0 120 -57.5 179t-175.5 59q-152 0 -293 -82l-57 125q159 86 360 86q377 0 377 -348v-750h-154v131q-143 -154 -335 -154q-67 0 -125.5 18t-109.5 56.5t-80.5 108t-29.5 162.5zM258 332 q0 -116 58.5 -173t160.5 -57q98 0 176.5 44.5t132.5 117.5v217q-111 62 -276 62q-119 0 -185.5 -55t-66.5 -156zM465 1219l211 327h219l-309 -327h-121z" />
<glyph unicode="&#xe2;" horiz-adv-x="1103" d="M106 322q0 88 34 155.5t92.5 108t131 60.5t154.5 20q156 0 268 -62v127q0 120 -57.5 179t-175.5 59q-152 0 -293 -82l-57 125q159 86 360 86q377 0 377 -348v-750h-154v131q-143 -154 -335 -154q-67 0 -125.5 18t-109.5 56.5t-80.5 108t-29.5 162.5zM217 1208l252 328 h172l252 -328h-133l-207 211l-207 -211h-129zM258 332q0 -116 58.5 -173t160.5 -57q98 0 176.5 44.5t132.5 117.5v217q-111 62 -276 62q-119 0 -185.5 -55t-66.5 -156z" />
<glyph unicode="&#xe3;" horiz-adv-x="1103" d="M106 322q0 88 34 155.5t92.5 108t131 60.5t154.5 20q156 0 268 -62v127q0 120 -57.5 179t-175.5 59q-152 0 -293 -82l-57 125q159 86 360 86q377 0 377 -348v-750h-154v131q-143 -154 -335 -154q-67 0 -125.5 18t-109.5 56.5t-80.5 108t-29.5 162.5zM188 1231 q0 130 60 198t149 68q83 0 152 -53q74 -57 103.5 -73.5t58.5 -16.5q63 0 80 137h127q0 -130 -60 -198t-149 -68q-83 0 -152 53q-79 60 -105 75t-57 15t-51 -31t-29 -106h-127zM258 332q0 -116 58.5 -173t160.5 -57q98 0 176.5 44.5t132.5 117.5v217q-111 62 -276 62 q-119 0 -185.5 -55t-66.5 -156z" />
<glyph unicode="&#xe4;" horiz-adv-x="1103" d="M106 322q0 88 34 155.5t92.5 108t131 60.5t154.5 20q156 0 268 -62v127q0 120 -57.5 179t-175.5 59q-152 0 -293 -82l-57 125q159 86 360 86q377 0 377 -348v-750h-154v131q-143 -154 -335 -154q-67 0 -125.5 18t-109.5 56.5t-80.5 108t-29.5 162.5zM242 1337 q0 46 33.5 80.5t80.5 34.5q44 0 77.5 -34.5t33.5 -80.5q0 -45 -33.5 -78.5t-77.5 -33.5q-47 0 -80.5 33t-33.5 79zM258 332q0 -116 58.5 -173t160.5 -57q98 0 176.5 44.5t132.5 117.5v217q-111 62 -276 62q-119 0 -185.5 -55t-66.5 -156zM639 1337q0 46 33.5 80.5t79.5 34.5 q45 0 78.5 -34.5t33.5 -80.5t-33 -79t-79 -33t-79.5 33t-33.5 79z" />
<glyph unicode="&#xe5;" horiz-adv-x="1103" d="M106 322q0 88 34 155.5t92.5 108t131 60.5t154.5 20q156 0 268 -62v127q0 120 -57.5 179t-175.5 59q-152 0 -293 -82l-57 125q159 86 360 86q377 0 377 -348v-750h-154v131q-143 -154 -335 -154q-67 0 -125.5 18t-109.5 56.5t-80.5 108t-29.5 162.5zM258 332 q0 -116 58.5 -173t160.5 -57q98 0 176.5 44.5t132.5 117.5v217q-111 62 -276 62q-119 0 -185.5 -55t-66.5 -156zM315 1466q0 101 68.5 169.5t171.5 68.5t171.5 -68.5t68.5 -169.5t-68.5 -170t-171.5 -69t-171.5 69t-68.5 170zM412 1466q0 -65 39 -106t104 -41t104 41t39 106 q0 64 -39 105t-104 41t-104 -41t-39 -105z" />
<glyph unicode="&#xe6;" horiz-adv-x="1716" d="M106 322q0 88 32 155.5t87.5 108t126 60.5t152.5 20q142 0 254 -62v127q0 122 -51.5 180t-167.5 58q-80 0 -143.5 -20t-135.5 -62l-57 125q159 86 346 86q273 0 313 -195q48 94 129.5 144.5t190.5 50.5q137 0 232 -69t140 -186.5t45 -273.5q0 -47 -6 -84h-688 q11 -176 83.5 -275t201.5 -99q86 0 142.5 22.5t140.5 79.5l71 -111q-110 -70 -183.5 -97.5t-186.5 -27.5q-96 0 -184 45.5t-148 141.5q-88 -100 -180 -143.5t-226 -43.5q-66 0 -123 18t-104.5 56.5t-75 107.5t-27.5 163zM258 332q0 -230 205 -230q81 0 165.5 43.5 t157.5 139.5q-26 82 -32 198q-57 31 -112.5 45.5t-145.5 14.5q-117 0 -177.5 -54.5t-60.5 -156.5zM905 610h551q-20 355 -276 355q-248 0 -275 -355z" />
<glyph unicode="&#xe7;" horiz-adv-x="1013" d="M113 532q0 115 26.5 210.5t71 160.5t104.5 109.5t125.5 65t134.5 20.5q196 0 340 -127l-92 -115q-62 56 -121 82.5t-137 26.5q-130 0 -213.5 -112t-83.5 -308q0 -199 81 -316.5t222 -117.5q74 0 131.5 28t116.5 86l92 -98q-72 -74 -154 -112t-190 -38l-26 -81 q45 28 112 28q31 0 60.5 -12.5t53.5 -46.5t24 -82q0 -93 -68 -135.5t-176 -42.5q-130 0 -242 73l39 66q85 -55 188 -55q138 0 138 88q0 31 -17 49t-49 18q-58 0 -98 -37l-74 29l47 150q-161 31 -263.5 171.5t-102.5 374.5z" />
<glyph unicode="&#xe8;" horiz-adv-x="1105" d="M113 543q0 253 124.5 404t319.5 151q205 0 318.5 -146t113.5 -383q0 -47 -6 -84h-717q11 -173 89.5 -273.5t209.5 -100.5q88 0 152 24t145 78l72 -111q-106 -67 -188.5 -96t-196.5 -29q-51 0 -101 13t-99.5 39.5t-91.5 72.5t-74.5 106.5t-51 146.5t-18.5 188zM223 1546 h219l211 -327h-121zM266 610h580q-9 164 -82 259.5t-209 95.5q-123 0 -199.5 -89.5t-89.5 -265.5z" />
<glyph unicode="&#xe9;" horiz-adv-x="1105" d="M113 543q0 253 124.5 404t319.5 151q205 0 318.5 -146t113.5 -383q0 -47 -6 -84h-717q11 -173 89.5 -273.5t209.5 -100.5q88 0 152 24t145 78l72 -111q-106 -67 -188.5 -96t-196.5 -29q-51 0 -101 13t-99.5 39.5t-91.5 72.5t-74.5 106.5t-51 146.5t-18.5 188zM266 610 h580q-9 164 -82 259.5t-209 95.5q-123 0 -199.5 -89.5t-89.5 -265.5zM465 1219l211 327h219l-309 -327h-121z" />
<glyph unicode="&#xea;" horiz-adv-x="1105" d="M113 543q0 253 124.5 404t319.5 151q205 0 318.5 -146t113.5 -383q0 -47 -6 -84h-717q11 -173 89.5 -273.5t209.5 -100.5q88 0 152 24t145 78l72 -111q-106 -67 -188.5 -96t-196.5 -29q-51 0 -101 13t-99.5 39.5t-91.5 72.5t-74.5 106.5t-51 146.5t-18.5 188zM217 1198 l252 328h172l252 -328h-133l-207 211l-207 -211h-129zM266 610h580q-9 164 -82 259.5t-209 95.5q-123 0 -199.5 -89.5t-89.5 -265.5z" />
<glyph unicode="&#xeb;" horiz-adv-x="1105" d="M113 543q0 253 124.5 404t319.5 151q205 0 318.5 -146t113.5 -383q0 -47 -6 -84h-717q11 -173 89.5 -273.5t209.5 -100.5q88 0 152 24t145 78l72 -111q-106 -67 -188.5 -96t-196.5 -29q-51 0 -101 13t-99.5 39.5t-91.5 72.5t-74.5 106.5t-51 146.5t-18.5 188zM244 1337 q0 46 33.5 80.5t80.5 34.5q44 0 77.5 -34.5t33.5 -80.5q0 -45 -33.5 -78.5t-77.5 -33.5q-47 0 -80.5 33t-33.5 79zM266 610h580q-9 164 -82 259.5t-209 95.5q-123 0 -199.5 -89.5t-89.5 -265.5zM641 1337q0 46 33.5 80.5t79.5 34.5q45 0 78.5 -34.5t33.5 -80.5t-33 -79 t-79 -33t-79.5 33t-33.5 79z" />
<glyph unicode="&#xec;" horiz-adv-x="514" d="M-106 1546h219l211 -327h-121zM180 0v1075h154v-1075h-154z" />
<glyph unicode="&#xed;" horiz-adv-x="514" d="M180 0v1075h154v-1075h-154zM190 1219l211 327h220l-310 -327h-121z" />
<glyph unicode="&#xee;" horiz-adv-x="514" d="M-82 1188l252 328h172l252 -328h-133l-207 211l-207 -211h-129zM180 0v1075h154v-1075h-154z" />
<glyph unicode="&#xef;" horiz-adv-x="514" d="M-55 1327q0 46 33.5 80.5t80.5 34.5q44 0 77.5 -34.5t33.5 -80.5t-33.5 -79.5t-77.5 -33.5q-47 0 -80.5 33.5t-33.5 79.5zM180 0v1075h154v-1075h-154zM342 1327q0 46 33.5 80.5t79.5 34.5q45 0 78.5 -34.5t33.5 -80.5t-33 -79.5t-79 -33.5t-79.5 33.5t-33.5 79.5z" />
<glyph unicode="&#xf0;" horiz-adv-x="1159" d="M113 481q0 120 36 217.5t96.5 159.5t137 95.5t160.5 33.5q133 0 219 -46.5t145 -135.5q-62 273 -227 401l-115 -129l-104 88l98 111q-87 36 -184 45v135q148 -9 276 -76l70 76l104 -88l-59 -65q131 -107 206 -282.5t75 -410.5q0 -321 -123 -477t-349 -156q-94 0 -177 33 t-147 95t-101 159t-37 217zM268 485q0 -183 86.5 -278.5t225.5 -95.5t226 95.5t87 278.5q0 186 -89 277.5t-239 91.5q-138 0 -217.5 -96.5t-79.5 -272.5z" />
<glyph unicode="&#xf1;" horiz-adv-x="1161" d="M170 0v1075h154v-131q48 71 124 112.5t173 41.5q177 0 276.5 -109.5t99.5 -333.5v-655h-153v629q0 173 -62 254.5t-192 81.5q-120 0 -193 -83.5t-73 -252.5v-629h-154zM209 1231q0 130 60 198t149 68q82 0 151 -53q74 -57 103.5 -73.5t58.5 -16.5q63 0 80 137h127 q0 -130 -60 -198t-149 -68q-82 0 -151 53q-79 60 -105 75t-57 15t-51 -31t-29 -106h-127z" />
<glyph unicode="&#xf2;" horiz-adv-x="1159" d="M113 537q0 133 36.5 241t100.5 177t149.5 106t184.5 37t183 -35.5t146.5 -103.5t98 -174t35.5 -240q0 -265 -134 -416.5t-338 -151.5t-333 147.5t-129 412.5zM240 1546h219l211 -327h-121zM268 541q0 -208 84.5 -319t227.5 -111t228 111.5t85 318.5t-84.5 315.5 t-228.5 108.5t-228 -108.5t-84 -315.5z" />
<glyph unicode="&#xf3;" horiz-adv-x="1159" d="M113 537q0 133 36.5 241t100.5 177t149.5 106t184.5 37t183 -35.5t146.5 -103.5t98 -174t35.5 -240q0 -265 -134 -416.5t-338 -151.5t-333 147.5t-129 412.5zM268 541q0 -208 84.5 -319t227.5 -111t228 111.5t85 318.5t-84.5 315.5t-228.5 108.5t-228 -108.5t-84 -315.5z M481 1219l211 327h219l-309 -327h-121z" />
<glyph unicode="&#xf4;" horiz-adv-x="1159" d="M113 537q0 133 36.5 241t100.5 177t149.5 106t184.5 37t183 -35.5t146.5 -103.5t98 -174t35.5 -240q0 -265 -134 -416.5t-338 -151.5t-333 147.5t-129 412.5zM240 1198l252 328h172l251 -328h-133l-207 211l-206 -211h-129zM268 541q0 -208 84.5 -319t227.5 -111 t228 111.5t85 318.5t-84.5 315.5t-228.5 108.5t-228 -108.5t-84 -315.5z" />
<glyph unicode="&#xf5;" horiz-adv-x="1159" d="M113 537q0 133 36.5 241t100.5 177t149.5 106t184.5 37t183 -35.5t146.5 -103.5t98 -174t35.5 -240q0 -265 -134 -416.5t-338 -151.5t-333 147.5t-129 412.5zM213 1231q0 130 60 198t149 68q82 0 151 -53q74 -57 103.5 -73.5t58.5 -16.5q63 0 80 137h127q0 -130 -60 -198 t-149 -68q-82 0 -151 53q-79 60 -105 75t-57 15t-51 -31t-29 -106h-127zM268 541q0 -208 84.5 -319t227.5 -111t228 111.5t85 318.5t-84.5 315.5t-228.5 108.5t-228 -108.5t-84 -315.5z" />
<glyph unicode="&#xf6;" horiz-adv-x="1159" d="M113 537q0 133 36.5 241t100.5 177t149.5 106t184.5 37t183 -35.5t146.5 -103.5t98 -174t35.5 -240q0 -265 -134 -416.5t-338 -151.5t-333 147.5t-129 412.5zM266 1327q0 46 34 80.5t81 34.5q44 0 77.5 -34.5t33.5 -80.5t-33.5 -79.5t-77.5 -33.5q-47 0 -81 33.5 t-34 79.5zM268 541q0 -208 84.5 -319t227.5 -111t228 111.5t85 318.5t-84.5 315.5t-228.5 108.5t-228 -108.5t-84 -315.5zM664 1327q0 46 33.5 80.5t78.5 34.5q46 0 79.5 -34.5t33.5 -80.5t-33.5 -79.5t-79.5 -33.5t-79 33.5t-33 79.5z" />
<glyph unicode="&#xf7;" horiz-adv-x="1490" d="M41 707l340 247q12 9 18 7q11 -4 4 -21l-61 -164h338v387l-164 -61q-16 -7 -20 4q-2 7 6 18l248 340l247 -340q9 -12 7 -18q-4 -11 -21 -4l-164 61v-387h330l-62 164q-7 17 5 21q6 2 18 -7l340 -247l-340 -248q-11 -8 -18 -6q-11 4 -5 20l62 164h-330v-367l164 62 q17 7 21 -4q2 -7 -7 -19l-247 -340l-248 340q-9 11 -6 19q4 11 20 4l164 -62v367h-338l61 -164q7 -16 -4 -20q-7 -2 -18 6z" />
<glyph unicode="&#xf8;" horiz-adv-x="1159" d="M113 537q0 133 36.5 241t100.5 177t149.5 106t184.5 37q98 0 182 -35l55 115h135l-86 -179q177 -146 177 -454q0 -265 -134 -416.5t-338 -151.5q-100 0 -176 33l-53 -112h-135l84 176q-87 69 -134.5 187t-47.5 276zM264 541q0 -216 94 -334l351 735q-59 27 -129 27 q-145 0 -230.5 -110t-85.5 -318zM457 131q58 -25 123 -25q145 0 231 113t86 322t-90 323z" />
<glyph unicode="&#xf9;" horiz-adv-x="1161" d="M164 420v655h153v-629q0 -172 62 -253.5t192 -81.5q120 0 193.5 83t73.5 252v629h153v-1075h-153v131q-48 -71 -124 -112.5t-173 -41.5q-177 0 -277 109.5t-100 333.5zM221 1546h219l211 -327h-121z" />
<glyph unicode="&#xfa;" horiz-adv-x="1161" d="M164 420v655h153v-629q0 -172 62 -253.5t192 -81.5q120 0 193.5 83t73.5 252v629h153v-1075h-153v131q-48 -71 -124 -112.5t-173 -41.5q-177 0 -277 109.5t-100 333.5zM494 1219l211 327h219l-310 -327h-120z" />
<glyph unicode="&#xfb;" horiz-adv-x="1161" d="M164 420v655h153v-629q0 -172 62 -253.5t192 -81.5q120 0 193.5 83t73.5 252v629h153v-1075h-153v131q-48 -71 -124 -112.5t-173 -41.5q-177 0 -277 109.5t-100 333.5zM242 1219l252 327h172l252 -327h-134l-206 211l-207 -211h-129z" />
<glyph unicode="&#xfc;" horiz-adv-x="1161" d="M164 420v655h153v-629q0 -172 62 -253.5t192 -81.5q120 0 193.5 83t73.5 252v629h153v-1075h-153v131q-48 -71 -124 -112.5t-173 -41.5q-177 0 -277 109.5t-100 333.5zM268 1348q0 46 34 80t81 34q44 0 77.5 -34t33.5 -80t-33.5 -79.5t-77.5 -33.5q-47 0 -81 33.5 t-34 79.5zM666 1348q0 46 33 80t79 34t79.5 -34t33.5 -80t-33.5 -79.5t-79.5 -33.5t-79 33.5t-33 79.5z" />
<glyph unicode="&#xfd;" horiz-adv-x="1087" d="M82 1075h162l262 -780l37 -111l37 109l264 782h162l-535 -1454h-154l148 391zM461 1198l211 328h219l-309 -328h-121z" />
<glyph unicode="&#xfe;" horiz-adv-x="1144" d="M170 -395v1802l154 86v-549q143 154 323 154q82 0 151 -32t122 -96.5t82.5 -170.5t29.5 -244q0 -275 -114 -426.5t-291 -151.5q-176 0 -303 144v-430zM324 272q47 -71 123 -116t167 -45q133 0 200 112t67 330q0 200 -72 306t-201 106q-158 0 -284 -156v-537z" />
<glyph unicode="&#xff;" horiz-adv-x="1087" d="M82 1075h162l262 -780l37 -111l37 109l264 782h162l-535 -1454h-154l148 391zM233 1327q0 46 34 80.5t81 34.5q44 0 77.5 -34.5t33.5 -80.5t-33.5 -79.5t-77.5 -33.5q-47 0 -81 33.5t-34 79.5zM631 1327q0 46 33.5 80.5t78.5 34.5q46 0 79.5 -34.5t33.5 -80.5 t-33.5 -79.5t-79.5 -33.5t-79 33.5t-33 79.5z" />
<glyph unicode="&#x152;" horiz-adv-x="2136" d="M127 717q0 215 72.5 382.5t207 262t308.5 94.5q150 0 257 -69.5t173 -184.5v232h844v-146h-701v-450h404v-146h-404v-547h731v-145h-874v238q-36 -61 -73 -105t-87.5 -81t-118 -56t-151.5 -19q-174 0 -308.5 94.5t-207 262.5t-72.5 383zM287 719q0 -267 121.5 -431.5 t310.5 -164.5q188 0 307 162.5t119 429.5t-122 431.5t-312 164.5q-188 0 -306 -162t-118 -430z" />
<glyph unicode="&#x153;" horiz-adv-x="1835" d="M113 537q0 133 36.5 241t100 177t146 106t177.5 37q133 0 229.5 -72t139.5 -182q46 112 138 183t216 71q196 0 309 -147t113 -382q0 -47 -6 -84h-696q11 -173 87.5 -273.5t201.5 -100.5q83 0 143.5 23.5t142.5 78.5l72 -111q-106 -67 -186 -96t-189 -29 q-116 0 -212.5 73.5t-137.5 182.5q-46 -114 -141 -185t-232 -71q-94 0 -175.5 37t-143.5 106t-97.5 176.5t-35.5 240.5zM268 541q0 -207 82.5 -318.5t218.5 -111.5t219.5 112t83.5 318t-83 315t-220 109t-219 -109t-82 -315zM1016 610h559q-9 163 -80.5 259t-200.5 96 q-117 0 -191 -90t-87 -265z" />
<glyph unicode="&#x178;" horiz-adv-x="1335" d="M96 1434h183l229 -412q111 -203 162 -307q73 149 161 307l230 412h178l-491 -865v-569h-160v567zM354 1634q0 46 34 80.5t81 34.5q44 0 77.5 -34.5t33.5 -80.5t-33 -79t-78 -33q-47 0 -81 33t-34 79zM752 1634q0 46 33.5 80.5t78.5 34.5q46 0 79.5 -34.5t33.5 -80.5 t-33.5 -79t-79.5 -33t-79 33t-33 79z" />
<glyph unicode="&#x2c6;" horiz-adv-x="1024" d="M174 1219l252 327h172l252 -327h-133l-207 211l-207 -211h-129z" />
<glyph unicode="&#x2dc;" horiz-adv-x="1024" d="M147 1231q0 130 60 198t149 68q83 0 152 -53q74 -57 103.5 -73.5t58.5 -16.5q63 0 80 137h127q0 -130 -60 -198t-149 -68q-83 0 -152 53q-79 60 -105 75t-57 15t-51 -31t-29 -106h-127z" />
<glyph unicode="&#x2000;" horiz-adv-x="926" />
<glyph unicode="&#x2001;" horiz-adv-x="1853" />
<glyph unicode="&#x2002;" horiz-adv-x="926" />
<glyph unicode="&#x2003;" horiz-adv-x="1853" />
<glyph unicode="&#x2004;" horiz-adv-x="617" />
<glyph unicode="&#x2005;" horiz-adv-x="463" />
<glyph unicode="&#x2006;" horiz-adv-x="308" />
<glyph unicode="&#x2007;" horiz-adv-x="308" />
<glyph unicode="&#x2008;" horiz-adv-x="231" />
<glyph unicode="&#x2009;" horiz-adv-x="370" />
<glyph unicode="&#x200a;" horiz-adv-x="102" />
<glyph unicode="&#x2010;" horiz-adv-x="659" d="M104 674v149h451v-149h-451z" />
<glyph unicode="&#x2011;" horiz-adv-x="659" d="M104 674v149h451v-149h-451z" />
<glyph unicode="&#x2012;" horiz-adv-x="659" d="M104 674v149h451v-149h-451z" />
<glyph unicode="&#x2013;" horiz-adv-x="864" d="M104 676v145h656v-145h-656z" />
<glyph unicode="&#x2014;" horiz-adv-x="1187" d="M104 676v145h979v-145h-979z" />
<glyph unicode="&#x2018;" horiz-adv-x="516" d="M123 977l133 457h106l-30 -457h-209z" />
<glyph unicode="&#x2019;" horiz-adv-x="516" d="M154 977l30 457h209l-133 -457h-106z" />
<glyph unicode="&#x201a;" horiz-adv-x="516" d="M154 -221l30 457h209l-133 -457h-106z" />
<glyph unicode="&#x201c;" horiz-adv-x="960" d="M123 977l133 457h106l-30 -457h-209zM567 977l133 457h107l-31 -457h-209z" />
<glyph unicode="&#x201d;" horiz-adv-x="960" d="M154 977l30 457h209l-133 -457h-106zM598 977l31 457h209l-133 -457h-107z" />
<glyph unicode="&#x201e;" horiz-adv-x="960" d="M154 -221l30 457h209l-133 -457h-106zM598 -221l31 457h209l-133 -457h-107z" />
<glyph unicode="&#x2022;" horiz-adv-x="765" d="M164 750q0 91 64.5 157t154.5 66t154.5 -66t64.5 -157t-64 -155.5t-155 -64.5t-155 64.5t-64 155.5z" />
<glyph unicode="&#x2026;" horiz-adv-x="1474" d="M115 109q0 54 38.5 94.5t92.5 40.5q52 0 91.5 -40.5t39.5 -94.5t-39 -93t-92 -39q-54 0 -92.5 39t-38.5 93zM606 109q0 54 38.5 94.5t92.5 40.5q52 0 91.5 -40.5t39.5 -94.5t-39 -93t-92 -39q-54 0 -92.5 39t-38.5 93zM1098 109q0 54 38.5 94.5t92.5 40.5 q52 0 91.5 -40.5t39.5 -94.5t-39 -93t-92 -39q-54 0 -92.5 39t-38.5 93z" />
<glyph unicode="&#x202f;" horiz-adv-x="370" />
<glyph unicode="&#x2039;" horiz-adv-x="743" d="M61 537l416 538h174l-415 -536l415 -539h-174z" />
<glyph unicode="&#x203a;" horiz-adv-x="743" d="M92 0l416 537l-416 538h174l416 -536l-416 -539h-174z" />
<glyph unicode="&#x205f;" horiz-adv-x="463" />
<glyph unicode="&#x20ac;" horiz-adv-x="1218" d="M121 715q0 353 149 547t406 194q148 0 245.5 -53.5t180.5 -175.5l-119 -92q-69 99 -135.5 139.5t-175.5 40.5q-152 0 -247.5 -96.5t-129.5 -276.5h551v-129h-567q-3 -46 -3 -94q0 -39 3 -80h567v-129h-553q33 -189 129 -290t252 -101q107 0 182 44.5t150 141.5l102 -90 q-90 -118 -190.5 -178t-247.5 -60q-255 0 -402 194.5t-147 543.5z" />
<glyph unicode="&#x2122;" horiz-adv-x="1560" d="M45 1348v86h573v-86h-237v-732h-98v732h-238zM762 616v818h106l193 -490q41 -101 55 -149q6 21 53 149l195 490h104v-818h-92v543v88q-9 -37 -49 -137l-215 -516l-209 516q-38 90 -49 137v-88v-543h-92z" />
<glyph unicode="&#x25fc;" horiz-adv-x="1075" d="M0 0v1075h1075v-1075h-1075z" />
<glyph unicode="&#xfb01;" horiz-adv-x="1222" d="M96 946v129h148v148q0 264 254 264q76 0 135 -19v-145q-55 25 -125 25q-53 0 -82 -25t-29 -88v-160h211v-129h-211v-946h-153v946h-148zM856 1376q0 46 33 78.5t80 32.5q43 0 74.5 -32.5t31.5 -78.5q0 -44 -31.5 -76t-74.5 -32q-47 0 -80 32t-33 76zM889 0v1075h153 v-1075h-153z" />
<glyph unicode="&#xfb02;" horiz-adv-x="1222" d="M96 946v129h148v148q0 264 254 264q76 0 135 -19v-145q-55 25 -125 25q-53 0 -82 -25t-29 -88v-160h211v-129h-211v-946h-153v946h-148zM889 0v1407l153 86v-1493h-153z" />
</font>
</defs>
</svg>
